# xmcd
#
# Track frame offsets:
#	150
#	9587
#	23364
#	38223
#	54928
#	79492
#	94078
#	109165
#	122267
#	143539
#	155450
#	170267
#	188450
#	203048
#	220557
#	243401
#	259638
#	275738
#
# Disc length: 3877 seconds
#
# Revision: 2
# Processed by: cddbd v1.4b42PL0 Copyright (c) Steve Scherf et al.
# Submitted via: EZCDDA 4.3.2
#
DISCID=de0f2312
DTITLE=Patrik Ömalm - DOG-simple
DYEAR=1900
DGENRE=
TTITLE0=You don't have to worry
TTITLE1=When they go, they're gone
TTITLE2=Some other part of town
TTITLE3=No part of the solution
TTITLE4=Keep ramblin' on
TTITLE5=Cheatin' heart
TTITLE6=Just one slip
TTITLE7=Part-time love
TTITLE8=Good times and bad times
TTITLE9=Little ms. Treated
TTITLE10=Chain
TTITLE11=Another surprise
TTITLE12=Who you gonna run to?
TTITLE13=Who's foolin who?
TTITLE14=Mixed-up mind
TTITLE15=Hookers parade
TTITLE16=Read between the lines
TTITLE17=Baby's got a long way home
EXTD=
EXTT0=
EXTT1=
EXTT2=
EXTT3=
EXTT4=
EXTT5=
EXTT6=
EXTT7=
EXTT8=
EXTT9=
EXTT10=
EXTT11=
EXTT12=
EXTT13=
EXTT14=
EXTT15=
EXTT16=
EXTT17=
PLAYORDER=
